<?xml version="1.0" encoding="UTF-8" standalone="no"?>
<!-- Generator: Adobe Illustrator 18.1.1, SVG Export Plug-In . SVG Version: 6.00 Build 0)  -->

<svg
   xmlns:dc="http://purl.org/dc/elements/1.1/"
   xmlns:cc="http://creativecommons.org/ns#"
   xmlns:rdf="http://www.w3.org/1999/02/22-rdf-syntax-ns#"
   xmlns:svg="http://www.w3.org/2000/svg"
   xmlns="http://www.w3.org/2000/svg"
   xmlns:sodipodi="http://sodipodi.sourceforge.net/DTD/sodipodi-0.dtd"
   xmlns:inkscape="http://www.inkscape.org/namespaces/inkscape"
   version="1.1"
   id="Layer_1"
   x="0px"
   y="0px"
   viewBox="0 0 156 104"
   enable-background="new 0 0 156 104"
   xml:space="preserve"
   inkscape:version="0.91 r13725"
   sodipodi:docname="handwriting-868482.svg"><metadata
     id="metadata3399"><rdf:RDF><cc:Work
         rdf:about=""><dc:format>image/svg+xml</dc:format><dc:type
           rdf:resource="http://purl.org/dc/dcmitype/StillImage" /></cc:Work></rdf:RDF></metadata><defs
     id="defs3397" /><sodipodi:namedview
     pagecolor="#ffffff"
     bordercolor="#666666"
     borderopacity="1"
     objecttolerance="10"
     gridtolerance="10"
     guidetolerance="10"
     inkscape:pageopacity="0"
     inkscape:pageshadow="2"
     inkscape:window-width="1920"
     inkscape:window-height="1136"
     id="namedview3395"
     showgrid="false"
     inkscape:zoom="9.2948718"
     inkscape:cx="83.191118"
     inkscape:cy="52"
     inkscape:window-x="0"
     inkscape:window-y="0"
     inkscape:window-maximized="1"
     inkscape:current-layer="Layer_1" /><g
     id="g3387"><g
       id="g3389"><path
         d="m 37.922759,97.167586 c -10.1,0 -11.046207,-1.342069 -16.967587,-8.651034 -8.271034,-21 1.526897,-31.697931 17.826897,-48.997931 1.2,-1.2 7.241379,-9.493104 8.441379,-10.793104 5.3,-5.7 1.111724,-14.727586 -0.588276,-18.027586 -1.8,-3.4 -11.309655,-4.0393103 -16.009655,-3.3393103 -16.5,2.6 -24.7503446,30.7034483 -24.7503446,30.9034483 L 0,36.6 C 0.3,35.3 6.4,4.3 31.2,0.3 41,-1.3 49.7,2.7 53.9,10.7 c 4.7,8.9 2.6,20.1 -5.3,28.6 -1.2,1.3 -2.4,2.6 -3.6,3.8 -16.7,17.8 -25.9,28.5 -19.6,41.4 3.3,6.8 11.1,7.6 16.9,6.3 C 51.5,88.7 62.1,79.7 62,61.3 61.8,33.2 78.2,19.5 92.2,16.4 c 14.5,-3.2 26.67862,3.922759 32.97862,17.322759 1.3,2.8 2.83793,5.077241 3.63793,7.777241 13.3,0.7 25.82276,5.375862 26.32276,5.475862 l -2.32414,5.044828 c -0.1,0 -12.71241,-4.306207 -23.61241,-5.306207 2.11379,17.360689 -3.65104,36.323448 -15.68897,41.155172 C 101.61379,93.869655 87.9,92.1 83,83.1 79.9,77.5 81.1,68.4 85.9,60.6 c 7.9,-13 25.71103,-17.615172 35.91103,-19.015172 -0.4,-1.2 -3.26689,-7.456552 -3.76689,-8.456552 -3.9,-8.3 -16.07311,-13.368276 -24.973106,-11.368276 -9.7,2.2 -26.056551,18.017241 -25.856551,39.017241 0.2,25.5 -9.682759,32.613104 -23.082759,35.813104 -2.6,0.6 -3.808965,0.577241 -6.208965,0.577241 z M 123.02759,47.137241 c -14,1.5 -27.377935,6.671035 -32.222073,16.235173 -4.569547,5.48009 -6.825089,15.074863 -1.501379,19.937241 10.744832,7.956552 19.564832,1.708966 24.404142,-1.198621 10.58482,-6.253103 9.81931,-26.073793 9.31931,-34.973793 z"
         id="path3391"
         inkscape:connector-curvature="0"
         style="fill:#868482"
         sodipodi:nodetypes="sccccccccccccccccccccccccccccsccccc" /></g><rect
       fill="none"
       width="156"
       height="104"
       id="rect3393" /></g></svg>
