<?xml version="1.0" encoding="UTF-8" standalone="no"?>
<!-- Generator: Adobe Illustrator 18.1.1, SVG Export Plug-In . SVG Version: 6.00 Build 0)  -->

<svg
   xmlns:dc="http://purl.org/dc/elements/1.1/"
   xmlns:cc="http://creativecommons.org/ns#"
   xmlns:rdf="http://www.w3.org/1999/02/22-rdf-syntax-ns#"
   xmlns:svg="http://www.w3.org/2000/svg"
   xmlns="http://www.w3.org/2000/svg"
   xmlns:sodipodi="http://sodipodi.sourceforge.net/DTD/sodipodi-0.dtd"
   xmlns:inkscape="http://www.inkscape.org/namespaces/inkscape"
   version="1.1"
   id="Layer_1"
   x="0px"
   y="0px"
   width="124px"
   height="96px"
   viewBox="0 0 124 96"
   enable-background="new 0 0 124 96"
   xml:space="preserve"
   inkscape:version="0.91 r13725"
   sodipodi:docname="textmode-868482.svg"><metadata
     id="metadata3875"><rdf:RDF><cc:Work
         rdf:about=""><dc:format>image/svg+xml</dc:format><dc:type
           rdf:resource="http://purl.org/dc/dcmitype/StillImage" /></cc:Work></rdf:RDF></metadata><defs
     id="defs3873" /><sodipodi:namedview
     pagecolor="#ffffff"
     bordercolor="#666666"
     borderopacity="1"
     objecttolerance="10"
     gridtolerance="10"
     guidetolerance="10"
     inkscape:pageopacity="0"
     inkscape:pageshadow="2"
     inkscape:window-width="1920"
     inkscape:window-height="1136"
     id="namedview3871"
     showgrid="false"
     inkscape:zoom="2.4583333"
     inkscape:cx="-2.4745771"
     inkscape:cy="47.999999"
     inkscape:window-x="0"
     inkscape:window-y="0"
     inkscape:window-maximized="1"
     inkscape:current-layer="Layer_1" /><g
     id="g3853"
     style="fill:#999999;fill-opacity:1"><g
       id="g3855"
       style="fill:#999999;fill-opacity:1"><g
         id="g3857"
         style="fill:#999999;fill-opacity:1"><path
           fill="#868482"
           d="M55.4,70.8L46.9,49H19.4L11,70.8H2.9L30,2h6.7l27,68.8H55.4z M44.4,41.8l-8-21.2c-1-2.7-2.1-6-3.2-9.9     c-0.7,3-1.7,6.3-3,9.9l-8.1,21.2H44.4z"
           id="path3859"
           style="fill:#999999;fill-opacity:1" /><path
           fill="#868482"
           d="M66.6,72.8H54.1L45.5,51H20.8l-8.4,21.8H0L28.7,0h9.4L66.6,72.8z M56.8,68.8h4L35.4,4h-1.9l1.7,6.2     c1.1,3.8,2.1,7.1,3.1,9.7l9,24h-28l9.1-23.9c1.2-3.5,2.2-6.7,2.9-9.6L32.8,4h-1.4L5.9,68.8h3.8L18.1,47h30.2L56.8,68.8z      M25.1,39.8h16.4l-7-18.5c-0.4-1.1-0.8-2.2-1.2-3.4c-0.4,1.1-0.7,2.2-1.2,3.4L25.1,39.8z"
           id="path3861"
           style="fill:#999999;fill-opacity:1" /></g><g
         id="g3863"
         style="fill:#999999;fill-opacity:1"><path
           fill="#868482"
           d="M116.2,70.8l-1.5-7.3h-0.4c-2.6,3.2-5.1,5.4-7.7,6.5s-5.7,1.7-9.5,1.7c-5.1,0-9.1-1.3-12-3.9     s-4.3-6.4-4.3-11.2c0-10.4,8.3-15.8,24.9-16.3l8.7-0.3v-3.2c0-4-0.9-7-2.6-8.9s-4.5-2.9-8.3-2.9c-4.3,0-9.1,1.3-14.5,3.9l-2.4-6     c2.5-1.4,5.3-2.5,8.3-3.2s6-1.2,9.1-1.2c6.1,0,10.7,1.4,13.6,4.1s4.4,7.1,4.4,13.1v35.1H116.2z M98.7,65.3c4.8,0,8.6-1.3,11.4-4     s4.1-6.4,4.1-11.2v-4.6l-7.8,0.3c-6.2,0.2-10.6,1.2-13.4,2.9S89,53.1,89,56.7c0,2.8,0.9,5,2.6,6.4S95.6,65.3,98.7,65.3z"
           id="path3865"
           style="fill:#999999;fill-opacity:1" /><path
           fill="#868482"
           d="M97.1,73.8c-5.6,0-10.1-1.5-13.3-4.5c-3.3-3-5-7.3-5-12.7c0-11.6,9-17.8,26.8-18.3l6.8-0.2v-1.3     c0-3.5-0.7-6.1-2.1-7.6c-1.3-1.5-3.6-2.2-6.8-2.2c-4,0-8.6,1.3-13.7,3.7l-1.9,0.9L84,22.1l1.6-0.8c2.7-1.4,5.6-2.6,8.8-3.4     c3.2-0.8,6.4-1.2,9.6-1.2c6.6,0,11.7,1.6,15,4.6c3.4,3.1,5.1,8,5.1,14.5v37.1h-9.4l-1.1-5.3c-2,2-4,3.5-6,4.4     C104.7,73.1,101.2,73.8,97.1,73.8z M103.5,23c4.4,0,7.7,1.2,9.8,3.5c2.1,2.3,3.1,5.7,3.1,10.3V42l-10.7,0.3     c-23,0.7-23,10.9-23,14.3c0,4.3,1.2,7.5,3.7,9.7c2.5,2.3,6.1,3.4,10.6,3.4c3.5,0,6.4-0.5,8.7-1.5c2.2-1,4.6-3,6.9-6l0.6-0.8h2.6     l0.7,1.6l1.2,5.7h2.1V35.8c0-5.4-1.3-9.3-3.8-11.6c-2.6-2.4-6.7-3.5-12.3-3.5c-2.8,0-5.7,0.4-8.6,1.1c-2.2,0.6-4.3,1.3-6.3,2.3     l0.9,2.3C94.9,24.1,99.4,23,103.5,23z M98.7,67.3c-3.5,0-6.4-0.9-8.5-2.7C88,62.8,87,60.1,87,56.7c0-4.3,1.7-7.6,5-9.6     c3.1-1.9,7.8-3,14.4-3.2l9.9-0.4v6.7c0,5.3-1.6,9.6-4.8,12.6C108.3,65.8,104,67.3,98.7,67.3z M112.2,47.6l-5.7,0.2     c-5.8,0.2-10,1.1-12.4,2.6C92,51.8,91,53.8,91,56.7c0,2.2,0.6,3.8,1.9,4.9c1.3,1.1,3.3,1.7,5.8,1.7c4.3,0,7.6-1.1,10-3.4     c2.4-2.3,3.5-5.5,3.5-9.7V47.6z"
           id="path3867"
           style="fill:#999999;fill-opacity:1" /></g></g><rect
       y="88"
       fill="#868482"
       width="124"
       height="8"
       id="rect3869"
       style="fill:#999999;fill-opacity:1" /></g><path
     style="fill:#999999;fill-opacity:1"
     d="m 0.33220339,72.63421 c 0,-0.155512 11.21134461,-28.667467 28.36096261,-72.12573542 0.143964,-0.36481583 1.481288,-0.50697527 4.733406,-0.50316785 L 37.959322,0.01061345 51.99322,35.862443 c 7.718644,19.718506 14.093085,36.099169 14.165419,36.401472 0.105888,0.442511 -1.021912,0.549644 -5.786164,0.549644 l -5.917684,0 -0.546838,-1.118644 C 53.607192,71.079661 51.634697,66.138911 49.524625,60.715473 l -3.836489,-9.860803 -12.536913,0.09809 -12.536911,0.09809 -4.160608,10.779661 -4.160608,10.779661 -5.9804461,0.112569 c -3.2892456,0.06192 -5.98044651,0.02208 -5.98044651,-0.08853 z M 41.423311,39.559322 c 0.0112,-0.536844 -7.930409,-21.643254 -8.141955,-21.638878 -0.210051,0.0043 -8.141912,21.095451 -8.137865,21.638878 0.003,0.398954 16.271502,0.398954 16.27982,0 z"
     id="path3877"
     inkscape:connector-curvature="0" /><path
     style="fill:#999999;fill-opacity:1"
     d="m 92.065151,73.149063 c -3.134892,-0.597811 -6.806633,-2.545615 -8.728039,-4.630092 -3.392162,-3.680063 -4.988275,-9.313558 -4.123086,-14.552476 0.655241,-3.967636 1.662266,-6.021269 4.194145,-8.553147 4.290577,-4.290579 10.117905,-6.121781 21.824109,-6.858095 l 7.47634,-0.470258 -0.23843,-2.843927 c -0.31037,-3.702079 -1.57377,-6.208129 -3.6811,-7.301736 -3.65637,-1.897491 -10.292169,-1.160169 -17.463875,1.940458 -1.80721,0.781333 -3.322385,1.379711 -3.367056,1.329729 -0.04467,-0.04998 -0.915507,-2.104434 -1.935193,-4.565451 l -1.853974,-4.474576 2.725673,-1.292565 c 3.14265,-1.490302 7.040665,-2.780454 10.251098,-3.392873 3.029187,-0.577844 10.434727,-0.568505 13.314347,0.01679 7.53165,1.530841 11.84608,6.107198 13.11198,13.90799 0.24028,1.480703 0.41628,10.734302 0.41806,21.980995 l 0.003,19.423728 -4.60617,0 -4.60616,0 -0.46374,-2.493636 c -0.25506,-1.371499 -0.554,-2.583889 -0.6643,-2.694191 -0.11031,-0.110307 -1.04828,0.545637 -2.08439,1.457658 -1.03611,0.91202 -2.66587,2.03679 -3.62169,2.499498 -3.64892,1.766412 -11.019819,2.493295 -15.881619,1.566175 z M 106.05095,61.766929 c 4.32066,-2.196863 6.139,-5.519149 6.14339,-11.224556 l 0.002,-2.949153 -3.76271,0.0081 c -2.06949,0.0044 -5.04407,0.190591 -6.61017,0.413687 -8.020819,1.142591 -10.808919,3.331507 -10.833665,8.505426 -0.02458,5.139533 2.569947,7.10421 8.959187,6.784237 2.870148,-0.143735 3.841638,-0.388564 6.101698,-1.5377 z"
     id="path3879"
     inkscape:connector-curvature="0" /><path
     style="fill:#999999;fill-opacity:1"
     d="m 0.33220339,92.135593 0,-3.864407 61.83050861,0 61.830508,0 0,3.864407 0,3.864407 -61.830508,0 -61.83050861,0 0,-3.864407 z"
     id="path3881"
     inkscape:connector-curvature="0" /></svg>
